<svg width="621" height="230" viewBox="0 0 621 230" fill="none" xmlns="http://www.w3.org/2000/svg">
<path d="M102.856 4.396L84.19 76H63.076L51.652 28.876L39.82 76H18.706L0.55 4.396H19.216L29.518 56.518L42.268 4.396H61.444L73.684 56.518L84.088 4.396H102.856ZM165.255 46.624C165.255 48.256 165.153 49.956 164.949 51.724H125.475C125.747 55.26 126.869 57.98 128.841 59.884C130.881 61.72 133.363 62.638 136.287 62.638C140.639 62.638 143.665 60.802 145.365 57.13H163.929C162.977 60.87 161.243 64.236 158.727 67.228C156.279 70.22 153.185 72.566 149.445 74.266C145.705 75.966 141.523 76.816 136.899 76.816C131.323 76.816 126.359 75.626 122.007 73.246C117.655 70.866 114.255 67.466 111.807 63.046C109.359 58.626 108.135 53.458 108.135 47.542C108.135 41.626 109.325 36.458 111.705 32.038C114.153 27.618 117.553 24.218 121.905 21.838C126.257 19.458 131.255 18.268 136.899 18.268C142.407 18.268 147.303 19.424 151.587 21.736C155.871 24.048 159.203 27.346 161.583 31.63C164.031 35.914 165.255 40.912 165.255 46.624ZM147.405 42.034C147.405 39.042 146.385 36.662 144.345 34.894C142.305 33.126 139.755 32.242 136.695 32.242C133.771 32.242 131.289 33.092 129.249 34.792C127.277 36.492 126.053 38.906 125.577 42.034H147.405ZM191.899 0.519999V76H174.457V0.519999H191.899ZM201.071 47.542C201.071 41.626 202.261 36.458 204.641 32.038C207.089 27.618 210.455 24.218 214.739 21.838C219.091 19.458 224.055 18.268 229.631 18.268C236.771 18.268 242.721 20.138 247.481 23.878C252.309 27.618 255.471 32.888 256.967 39.688H238.403C236.839 35.336 233.813 33.16 229.325 33.16C226.129 33.16 223.579 34.418 221.675 36.934C219.771 39.382 218.819 42.918 218.819 47.542C218.819 52.166 219.771 55.736 221.675 58.252C223.579 60.7 226.129 61.924 229.325 61.924C233.813 61.924 236.839 59.748 238.403 55.396H256.967C255.471 62.06 252.309 67.296 247.481 71.104C242.653 74.912 236.703 76.816 229.631 76.816C224.055 76.816 219.091 75.626 214.739 73.246C210.455 70.866 207.089 67.466 204.641 63.046C202.261 58.626 201.071 53.458 201.071 47.542ZM292.205 76.816C286.629 76.816 281.597 75.626 277.109 73.246C272.689 70.866 269.187 67.466 266.603 63.046C264.087 58.626 262.829 53.458 262.829 47.542C262.829 41.694 264.121 36.56 266.705 32.14C269.289 27.652 272.825 24.218 277.313 21.838C281.801 19.458 286.833 18.268 292.409 18.268C297.985 18.268 303.017 19.458 307.505 21.838C311.993 24.218 315.529 27.652 318.113 32.14C320.697 36.56 321.989 41.694 321.989 47.542C321.989 53.39 320.663 58.558 318.011 63.046C315.427 67.466 311.857 70.866 307.301 73.246C302.813 75.626 297.781 76.816 292.205 76.816ZM292.205 61.72C295.537 61.72 298.359 60.496 300.671 58.048C303.051 55.6 304.241 52.098 304.241 47.542C304.241 42.986 303.085 39.484 300.773 37.036C298.529 34.588 295.741 33.364 292.409 33.364C289.009 33.364 286.187 34.588 283.943 37.036C281.699 39.416 280.577 42.918 280.577 47.542C280.577 52.098 281.665 55.6 283.841 58.048C286.085 60.496 288.873 61.72 292.205 61.72ZM403.866 18.472C410.938 18.472 416.548 20.614 420.696 24.898C424.912 29.182 427.02 35.132 427.02 42.748V76H409.68V45.094C409.68 41.422 408.694 38.6 406.722 36.628C404.818 34.588 402.166 33.568 398.766 33.568C395.366 33.568 392.68 34.588 390.708 36.628C388.804 38.6 387.852 41.422 387.852 45.094V76H370.512V45.094C370.512 41.422 369.526 38.6 367.554 36.628C365.65 34.588 362.998 33.568 359.598 33.568C356.198 33.568 353.512 34.588 351.54 36.628C349.636 38.6 348.684 41.422 348.684 45.094V76H331.242V19.084H348.684V26.224C350.452 23.844 352.764 21.974 355.62 20.614C358.476 19.186 361.706 18.472 365.31 18.472C369.594 18.472 373.402 19.39 376.734 21.226C380.134 23.062 382.786 25.68 384.69 29.08C386.662 25.952 389.348 23.402 392.748 21.43C396.148 19.458 399.854 18.472 403.866 18.472ZM492.871 46.624C492.871 48.256 492.769 49.956 492.565 51.724H453.091C453.363 55.26 454.485 57.98 456.457 59.884C458.497 61.72 460.979 62.638 463.903 62.638C468.255 62.638 471.281 60.802 472.981 57.13H491.545C490.593 60.87 488.859 64.236 486.343 67.228C483.895 70.22 480.801 72.566 477.061 74.266C473.321 75.966 469.139 76.816 464.515 76.816C458.939 76.816 453.975 75.626 449.623 73.246C445.271 70.866 441.871 67.466 439.423 63.046C436.975 58.626 435.751 53.458 435.751 47.542C435.751 41.626 436.941 36.458 439.321 32.038C441.769 27.618 445.169 24.218 449.521 21.838C453.873 19.458 458.871 18.268 464.515 18.268C470.023 18.268 474.919 19.424 479.203 21.736C483.487 24.048 486.819 27.346 489.199 31.63C491.647 35.914 492.871 40.912 492.871 46.624ZM475.021 42.034C475.021 39.042 474.001 36.662 471.961 34.894C469.921 33.126 467.371 32.242 464.311 32.242C461.387 32.242 458.905 33.092 456.865 34.792C454.893 36.492 453.669 38.906 453.193 42.034H475.021ZM555.409 61.21V76H546.535C540.211 76 535.281 74.47 531.745 71.41C528.209 68.282 526.441 63.216 526.441 56.212V33.568H519.505V19.084H526.441V5.212H543.883V19.084H555.307V33.568H543.883V56.416C543.883 58.116 544.291 59.34 545.107 60.088C545.923 60.836 547.283 61.21 549.187 61.21H555.409ZM591.033 76.816C585.457 76.816 580.425 75.626 575.937 73.246C571.517 70.866 568.015 67.466 565.431 63.046C562.915 58.626 561.657 53.458 561.657 47.542C561.657 41.694 562.949 36.56 565.533 32.14C568.117 27.652 571.653 24.218 576.141 21.838C580.629 19.458 585.661 18.268 591.237 18.268C596.813 18.268 601.845 19.458 606.333 21.838C610.821 24.218 614.357 27.652 616.941 32.14C619.525 36.56 620.817 41.694 620.817 47.542C620.817 53.39 619.491 58.558 616.839 63.046C614.255 67.466 610.685 70.866 606.129 73.246C601.641 75.626 596.609 76.816 591.033 76.816ZM591.033 61.72C594.365 61.72 597.187 60.496 599.499 58.048C601.879 55.6 603.069 52.098 603.069 47.542C603.069 42.986 601.913 39.484 599.601 37.036C597.357 34.588 594.569 33.364 591.237 33.364C587.837 33.364 585.015 34.588 582.771 37.036C580.527 39.416 579.405 42.918 579.405 47.542C579.405 52.098 580.493 55.6 582.669 58.048C584.913 60.496 587.701 61.72 591.033 61.72Z" fill="#28ACE2"/>
<path d="M51.856 180.04C50.564 177.66 48.694 175.858 46.246 174.634C43.866 173.342 41.044 172.696 37.78 172.696C32.136 172.696 27.614 174.566 24.214 178.306C20.814 181.978 19.114 186.908 19.114 193.096C19.114 199.692 20.882 204.86 24.418 208.6C28.022 212.272 32.952 214.108 39.208 214.108C43.492 214.108 47.096 213.02 50.02 210.844C53.012 208.668 55.188 205.54 56.548 201.46H34.414V188.608H72.358V204.826C71.066 209.178 68.856 213.224 65.728 216.964C62.668 220.704 58.758 223.73 53.998 226.042C49.238 228.354 43.866 229.51 37.882 229.51C30.81 229.51 24.486 227.98 18.91 224.92C13.402 221.792 9.084 217.474 5.956 211.966C2.896 206.458 1.366 200.168 1.366 193.096C1.366 186.024 2.896 179.734 5.956 174.226C9.084 168.65 13.402 164.332 18.91 161.272C24.418 158.144 30.708 156.58 37.78 156.58C46.348 156.58 53.556 158.654 59.404 162.802C65.32 166.95 69.23 172.696 71.134 180.04H51.856ZM99.4613 153.52V229H82.0193V153.52H99.4613ZM138.009 229.816C132.433 229.816 127.401 228.626 122.913 226.246C118.493 223.866 114.991 220.466 112.407 216.046C109.891 211.626 108.633 206.458 108.633 200.542C108.633 194.694 109.925 189.56 112.509 185.14C115.093 180.652 118.629 177.218 123.117 174.838C127.605 172.458 132.637 171.268 138.213 171.268C143.789 171.268 148.821 172.458 153.309 174.838C157.797 177.218 161.333 180.652 163.917 185.14C166.501 189.56 167.793 194.694 167.793 200.542C167.793 206.39 166.467 211.558 163.815 216.046C161.231 220.466 157.661 223.866 153.105 226.246C148.617 228.626 143.585 229.816 138.009 229.816ZM138.009 214.72C141.341 214.72 144.163 213.496 146.475 211.048C148.855 208.6 150.045 205.098 150.045 200.542C150.045 195.986 148.889 192.484 146.577 190.036C144.333 187.588 141.545 186.364 138.213 186.364C134.813 186.364 131.991 187.588 129.747 190.036C127.503 192.416 126.381 195.918 126.381 200.542C126.381 205.098 127.469 208.6 129.645 211.048C131.889 213.496 134.677 214.72 138.009 214.72ZM194.489 180.142C196.121 177.49 198.467 175.348 201.527 173.716C204.587 172.084 208.089 171.268 212.033 171.268C216.725 171.268 220.975 172.458 224.783 174.838C228.591 177.218 231.583 180.618 233.759 185.038C236.003 189.458 237.125 194.592 237.125 200.44C237.125 206.288 236.003 211.456 233.759 215.944C231.583 220.364 228.591 223.798 224.783 226.246C220.975 228.626 216.725 229.816 212.033 229.816C208.021 229.816 204.519 229.034 201.527 227.47C198.535 225.838 196.189 223.696 194.489 221.044V229H177.047V153.52H194.489V180.142ZM219.377 200.44C219.377 196.088 218.153 192.688 215.705 190.24C213.325 187.724 210.367 186.466 206.831 186.466C203.363 186.466 200.405 187.724 197.957 190.24C195.577 192.756 194.387 196.19 194.387 200.542C194.387 204.894 195.577 208.328 197.957 210.844C200.405 213.36 203.363 214.618 206.831 214.618C210.299 214.618 213.257 213.36 215.705 210.844C218.153 208.26 219.377 204.792 219.377 200.44ZM299.927 199.624C299.927 201.256 299.825 202.956 299.621 204.724H260.147C260.419 208.26 261.541 210.98 263.513 212.884C265.553 214.72 268.035 215.638 270.959 215.638C275.311 215.638 278.337 213.802 280.037 210.13H298.601C297.649 213.87 295.915 217.236 293.399 220.228C290.951 223.22 287.857 225.566 284.117 227.266C280.377 228.966 276.195 229.816 271.571 229.816C265.995 229.816 261.031 228.626 256.679 226.246C252.327 223.866 248.927 220.466 246.479 216.046C244.031 211.626 242.807 206.458 242.807 200.542C242.807 194.626 243.997 189.458 246.377 185.038C248.825 180.618 252.225 177.218 256.577 174.838C260.929 172.458 265.927 171.268 271.571 171.268C277.079 171.268 281.975 172.424 286.259 174.736C290.543 177.048 293.875 180.346 296.255 184.63C298.703 188.914 299.927 193.912 299.927 199.624ZM282.077 195.034C282.077 192.042 281.057 189.662 279.017 187.894C276.977 186.126 274.427 185.242 271.367 185.242C268.443 185.242 265.961 186.092 263.921 187.792C261.949 189.492 260.725 191.906 260.249 195.034H282.077ZM340.851 214.21V229H331.977C325.653 229 320.723 227.47 317.187 224.41C313.651 221.282 311.883 216.216 311.883 209.212V186.568H304.947V172.084H311.883V158.212H329.325V172.084H340.749V186.568H329.325V209.416C329.325 211.116 329.733 212.34 330.549 213.088C331.365 213.836 332.725 214.21 334.629 214.21H340.851ZM404.218 199.624C404.218 201.256 404.116 202.956 403.912 204.724H364.438C364.71 208.26 365.832 210.98 367.804 212.884C369.844 214.72 372.326 215.638 375.25 215.638C379.602 215.638 382.628 213.802 384.328 210.13H402.892C401.94 213.87 400.206 217.236 397.69 220.228C395.242 223.22 392.148 225.566 388.408 227.266C384.668 228.966 380.486 229.816 375.862 229.816C370.286 229.816 365.322 228.626 360.97 226.246C356.618 223.866 353.218 220.466 350.77 216.046C348.322 211.626 347.098 206.458 347.098 200.542C347.098 194.626 348.288 189.458 350.668 185.038C353.116 180.618 356.516 177.218 360.868 174.838C365.22 172.458 370.218 171.268 375.862 171.268C381.37 171.268 386.266 172.424 390.55 174.736C394.834 177.048 398.166 180.346 400.546 184.63C402.994 188.914 404.218 193.912 404.218 199.624ZM386.368 195.034C386.368 192.042 385.348 189.662 383.308 187.894C381.268 186.126 378.718 185.242 375.658 185.242C372.734 185.242 370.252 186.092 368.212 187.792C366.24 189.492 365.016 191.906 364.54 195.034H386.368ZM409.952 200.542C409.952 194.626 411.142 189.458 413.522 185.038C415.97 180.618 419.336 177.218 423.62 174.838C427.972 172.458 432.936 171.268 438.512 171.268C445.652 171.268 451.602 173.138 456.362 176.878C461.19 180.618 464.352 185.888 465.848 192.688H447.284C445.72 188.336 442.694 186.16 438.206 186.16C435.01 186.16 432.46 187.418 430.556 189.934C428.652 192.382 427.7 195.918 427.7 200.542C427.7 205.166 428.652 208.736 430.556 211.252C432.46 213.7 435.01 214.924 438.206 214.924C442.694 214.924 445.72 212.748 447.284 208.396H465.848C464.352 215.06 461.19 220.296 456.362 224.104C451.534 227.912 445.584 229.816 438.512 229.816C432.936 229.816 427.972 228.626 423.62 226.246C419.336 223.866 415.97 220.466 413.522 216.046C411.142 211.626 409.952 206.458 409.952 200.542ZM510.164 171.472C516.692 171.472 521.928 173.648 525.872 178C529.816 182.284 531.788 188.2 531.788 195.748V229H514.448V198.094C514.448 194.286 513.462 191.328 511.49 189.22C509.518 187.112 506.866 186.058 503.534 186.058C500.202 186.058 497.55 187.112 495.578 189.22C493.606 191.328 492.62 194.286 492.62 198.094V229H475.178V153.52H492.62V179.734C494.388 177.218 496.802 175.212 499.862 173.716C502.922 172.22 506.356 171.472 510.164 171.472Z" fill="url(#paint0_linear_3_6)"/>
<defs>
<linearGradient id="paint0_linear_3_6" x1="585.214" y1="172" x2="222.349" y2="259.914" gradientUnits="userSpaceOnUse">
<stop stop-color="#E3F891"/>
<stop offset="1" stop-color="#CBF231"/>
</linearGradient>
</defs>
</svg>
